<svg xmlns="http://www.w3.org/2000/svg" width="1080" height="830" viewBox="0 0 1080 830">
<style>
 text{font-family:'Noto Sans CJK KR','NanumGothic','DejaVu Sans',sans-serif;fill:#000;stroke:none}
 .o{fill:none;stroke:#000;stroke-width:2.4;stroke-linejoin:round;stroke-linecap:round}
 .m{fill:none;stroke:#000;stroke-width:1.5;stroke-linejoin:round;stroke-linecap:round}
 .f{fill:none;stroke:#000;stroke-width:0.9;stroke-linejoin:round}
 .hd{fill:none;stroke:#000;stroke-width:1.0;stroke-dasharray:7 5}
 .ct{fill:none;stroke:#000;stroke-width:1.0;stroke-dasharray:20 4 4 4}
 .ld{fill:none;stroke:#000;stroke-width:0.9}
 .ar{fill:none;stroke:#000;stroke-width:1.4;marker-end:url(#ar)}
 .ar2{fill:none;stroke:#000;stroke-width:1.1;marker-end:url(#ar)}
 .ray{fill:none;stroke:#000;stroke-width:1.0;stroke-dasharray:6 4;marker-end:url(#ar)}
 .n{font-size:15px}
 .ns{font-size:13.5px}
 .nc{font-size:14px;text-anchor:middle}
 .ncs{font-size:12px;text-anchor:middle}
 .cap{font-size:21px;font-weight:700;text-anchor:middle}
 .sub{font-size:14px}
 .note{font-size:12.5px}
</style>
<defs>
 <marker id="ar" markerWidth="10" markerHeight="10" refX="8.5" refY="3" orient="auto">
  <path d="M0,0 L8.5,3 L0,6 z" fill="#000"/></marker>
 <pattern id="hA" width="8" height="8" patternTransform="rotate(45)" patternUnits="userSpaceOnUse">
  <line x1="0" y1="0" x2="0" y2="8" stroke="#000" stroke-width="0.8"/></pattern>
 <pattern id="hB" width="8" height="8" patternTransform="rotate(-45)" patternUnits="userSpaceOnUse">
  <line x1="0" y1="0" x2="0" y2="8" stroke="#000" stroke-width="0.8"/></pattern>
 <pattern id="hC" width="5" height="5" patternTransform="rotate(45)" patternUnits="userSpaceOnUse">
  <line x1="0" y1="0" x2="0" y2="5" stroke="#000" stroke-width="1.6"/></pattern>
 <pattern id="hD" width="6" height="6" patternUnits="userSpaceOnUse">
  <circle cx="3" cy="3" r="1.0" fill="#000"/></pattern>
</defs>
<rect width="1080" height="830" style="fill:#fff"/><text class="cap" x="540.0" y="40">【도 4】</text><text class="sub" x="30" y="72">도 1의 A–A′ 선 단면도 및 B부 확대도</text><path d="M350,192 A248,248 0 1 1 349.99,192 Z M350,212 A228,228 0 1 0 350.01,212 Z" fill="url(#hA)" fill-rule="evenodd" stroke="#000" stroke-width="2.4"/><circle class="o" cx="350" cy="440" r="228"/><circle class="m" cx="350" cy="440" r="221" stroke-dasharray="3 3"/><path d="M561.5,500.7 L588.4,508.4 L594.5,481.8 L566.9,477.1 Z" fill="url(#hC)" stroke="#000" stroke-width="1.6"/><path d="M514.2,586.4 L535.1,605.1 L552.1,583.7 L529.3,567.5 Z" fill="url(#hC)" stroke="#000" stroke-width="1.6"/><path d="M434.4,643.2 L445.2,669.0 L469.7,657.2 L456.2,632.7 Z" fill="url(#hC)" stroke="#000" stroke-width="1.6"/><path d="M337.9,659.7 L336.4,687.6 L363.6,687.6 L362.1,659.7 Z" fill="url(#hC)" stroke="#000" stroke-width="1.6"/><path d="M243.8,632.7 L230.3,657.2 L254.8,669.0 L265.6,643.2 Z" fill="url(#hC)" stroke="#000" stroke-width="1.6"/><path d="M170.7,567.5 L147.9,583.7 L164.9,605.1 L185.8,586.4 Z" fill="url(#hC)" stroke="#000" stroke-width="1.6"/><path d="M133.1,477.1 L105.5,481.8 L111.6,508.4 L138.5,500.7 Z" fill="url(#hC)" stroke="#000" stroke-width="1.6"/><path d="M138.5,379.3 L111.6,371.6 L105.5,398.2 L133.1,402.9 Z" fill="url(#hC)" stroke="#000" stroke-width="1.6"/><path d="M185.8,293.6 L164.9,274.9 L147.9,296.3 L170.7,312.5 Z" fill="url(#hC)" stroke="#000" stroke-width="1.6"/><path d="M265.6,236.8 L254.8,211.0 L230.3,222.8 L243.8,247.3 Z" fill="url(#hC)" stroke="#000" stroke-width="1.6"/><path d="M362.1,220.3 L363.6,192.4 L336.4,192.4 L337.9,220.3 Z" fill="url(#hC)" stroke="#000" stroke-width="1.6"/><path d="M456.2,247.3 L469.7,222.8 L445.2,211.0 L434.4,236.8 Z" fill="url(#hC)" stroke="#000" stroke-width="1.6"/><path d="M529.3,312.5 L552.1,296.3 L535.1,274.9 L514.2,293.6 Z" fill="url(#hC)" stroke="#000" stroke-width="1.6"/><path d="M566.9,402.9 L594.5,398.2 L588.4,371.6 L561.5,379.3 Z" fill="url(#hC)" stroke="#000" stroke-width="1.6"/><rect x="188" y="431" width="324" height="18" fill="url(#hB)" stroke="#000" stroke-width="2.2"/><path class="m" d="M404.5,461.7 L562.6,492.6 L564.4,484.8 L408.5,444.1 Z"/><path class="m" d="M389.7,483.2 L518.7,579.7 L523.7,573.4 L401.0,469.1 Z"/><path class="m" d="M367.1,496.2 L441.4,639.0 L448.6,635.6 L383.3,488.4 Z"/><path class="m" d="M341.0,498.0 L346.0,659.0 L354.0,659.0 L359.0,498.0 Z"/><path class="m" d="M316.7,488.4 L251.4,635.6 L258.6,639.0 L332.9,496.2 Z"/><path class="m" d="M299.0,469.1 L176.3,573.4 L181.3,579.7 L310.3,483.2 Z"/><path class="m" d="M291.5,444.1 L135.6,484.8 L137.4,492.6 L295.5,461.7 Z"/><path class="m" d="M295.5,418.3 L137.4,387.4 L135.6,395.2 L291.5,435.9 Z"/><path class="m" d="M310.3,396.8 L181.3,300.3 L176.3,306.6 L299.0,410.9 Z"/><path class="m" d="M332.9,383.8 L258.6,241.0 L251.4,244.4 L316.7,391.6 Z"/><path class="m" d="M359.0,382.0 L354.0,221.0 L346.0,221.0 L341.0,382.0 Z"/><path class="m" d="M383.3,391.6 L448.6,244.4 L441.4,241.0 L367.1,383.8 Z"/><path class="m" d="M401.0,410.9 L523.7,306.6 L518.7,300.3 L389.7,396.8 Z"/><path class="m" d="M408.5,435.9 L564.4,395.2 L562.6,387.4 L404.5,418.3 Z"/><rect class="m" x="169" y="416" width="26" height="15" rx="2"/><rect class="m" x="169" y="449" width="26" height="15" rx="2"/><rect class="m" x="211" y="416" width="26" height="15" rx="2"/><rect class="m" x="211" y="449" width="26" height="15" rx="2"/><rect class="m" x="253" y="416" width="26" height="15" rx="2"/><rect class="m" x="253" y="449" width="26" height="15" rx="2"/><rect class="m" x="295" y="416" width="26" height="15" rx="2"/><rect class="m" x="295" y="449" width="26" height="15" rx="2"/><rect class="m" x="379" y="416" width="26" height="15" rx="2"/><rect class="m" x="379" y="449" width="26" height="15" rx="2"/><rect class="m" x="421" y="416" width="26" height="15" rx="2"/><rect class="m" x="421" y="449" width="26" height="15" rx="2"/><rect class="m" x="463" y="416" width="26" height="15" rx="2"/><rect class="m" x="463" y="449" width="26" height="15" rx="2"/><rect class="m" x="505" y="416" width="26" height="15" rx="2"/><rect class="m" x="505" y="449" width="26" height="15" rx="2"/><rect class="m" x="320" y="407" width="60" height="24" rx="2" style="fill:#fff"/><text class="ncs" x="350" y="424">130</text><path class="ray" d="M476,414 L500,290"/><path class="ray" d="M476,414 L432,300"/><path class="ray" d="M466,264 L490,234"/><path class="ray" d="M466,264 L436,240"/><path class="o" d="M292,662 v40 h116 v-40"/><rect class="m" x="306" y="696" width="88" height="14"/><circle class="hd" cx="478" cy="272" r="62"/><text class="n" x="534" y="204">B</text><circle class="o" cx="838" cy="330" r="172"/><text class="n" x="666" y="144">B부 확대도</text><line class="hd" x1="523" y1="229" x2="711" y2="447"/><clipPath id="cpB"><circle cx="838" cy="330" r="170"/></clipPath><g clip-path="url(#cpB)"><rect x="666" y="158" width="344" height="66" fill="url(#hA)"/><path class="o" d="M666,224 H1010"/><rect x="666" y="224" width="156" height="13" fill="url(#hD)" stroke="#000" stroke-width="1.2"/><rect x="854" y="224" width="156" height="13" fill="url(#hD)" stroke="#000" stroke-width="1.2"/><rect x="822" y="158" width="32" height="150" fill="url(#hC)" stroke="#000" stroke-width="1.8"/><path class="o" d="M823,480 V224 M853,480 V224"/><path class="m" d="M823,480 L806,502 M853,480 L870,502"/><path class="ray" d="M742,502 L798,250"/><path class="ray" d="M798,250 L746,300"/><path class="ray" d="M934,502 L878,250"/><path class="ray" d="M878,250 L930,300"/></g><text class="ncs" x="734" y="272">셀 A</text><text class="ncs" x="942" y="272">셀 B</text><line class="ld" x1="350" y1="202" x2="62" y2="130"/><circle cx="350" cy="202" r="2.5" fill="#000"/><text class="n" x="54" y="135" text-anchor="end">110</text><line class="ld" x1="144" y1="344" x2="62" y2="186"/><circle cx="144" cy="344" r="2.5" fill="#000"/><text class="n" x="54" y="191" text-anchor="end">114</text><line class="ld" x1="162.36044420767283" y1="290.36244755390396" x2="62" y2="242"/><circle cx="162.36044420767283" cy="290.36244755390396" r="2.5" fill="#000"/><text class="n" x="54" y="247" text-anchor="end">112</text><line class="ld" x1="202" y1="318" x2="62" y2="298"/><circle cx="202" cy="318" r="2.5" fill="#000"/><text class="n" x="54" y="303" text-anchor="end">123</text><line class="ld" x1="194" y1="440" x2="62" y2="500"/><circle cx="194" cy="440" r="2.5" fill="#000"/><text class="n" x="54" y="505" text-anchor="end">121</text><line class="ld" x1="220" y1="456" x2="62" y2="556"/><circle cx="220" cy="456" r="2.5" fill="#000"/><text class="n" x="54" y="561" text-anchor="end">122</text><line class="ld" x1="222" y1="606" x2="62" y2="612"/><circle cx="222" cy="606" r="2.5" fill="#000"/><text class="n" x="54" y="617" text-anchor="end">111</text><line class="ld" x1="320" y1="703" x2="62" y2="668"/><circle cx="320" cy="703" r="2.5" fill="#000"/><text class="n" x="54" y="673" text-anchor="end">115</text><line class="ld" x1="728" y1="178" x2="1032" y2="130"/><circle cx="728" cy="178" r="2.5" fill="#000"/><text class="n" x="1040" y="135" text-anchor="start">110</text><line class="ld" x1="838" y1="198" x2="1032" y2="186"/><circle cx="838" cy="198" r="2.5" fill="#000"/><text class="n" x="1040" y="191" text-anchor="start">112</text><line class="ld" x1="698" y1="240" x2="1032" y2="242"/><circle cx="698" cy="240" r="2.5" fill="#000"/><text class="n" x="1040" y="247" text-anchor="start">114</text><line class="ld" x1="853" y1="376" x2="1032" y2="298"/><circle cx="853" cy="376" r="2.5" fill="#000"/><text class="n" x="1040" y="303" text-anchor="start">123</text><line class="ld" x1="718" y1="360" x2="1032" y2="354"/><circle cx="718" cy="360" r="2.5" fill="#000"/><text class="n" x="1040" y="359" text-anchor="start">111</text><text class="note" x="620" y="566">도광 리브(123)는 격벽(112) 내측에 정렬되어</text><text class="note" x="620" y="592">① 발광 소자(122)의 광을 셀(111)로 안내하고,</text><text class="note" x="620" y="618">② 인접한 셀 사이의 광 누설을 차단한다.</text><text class="note" x="620" y="652">→ 셀 A와 셀 B가 서로 다른 색을 표시하여도</text><text class="note" x="620" y="678">　 경계가 선명하게 유지된다.</text><text class="note" x="620" y="712">단일 평면 기판(121)의 양면 실장만으로</text><text class="note" x="620" y="738">구면 전 방향 발광이 이루어진다.</text></svg>